# xmcd CD database file
#
# Track frame offsets:
#	150
#	13276
#	26052
#	38369
#	59546
#	75511
#	87319
#	113139
#	125459
#	144528
#	168229
#	184154
#	200498
#	217102
#	235447
#	249868
#	264496
#
# Disc length: 3838 seconds
#
# Revision: 5
# Processed by: cddbd v1.5.2PL0 Copyright (c) Steve Scherf et al.
# Submitted via: CDex 1.75
#
DISCID=eb0efc11
DTITLE=Fetenhits (On The Road) - Fetenhits (On The Road)
DYEAR=2010
DGENRE=Rock
TTITLE0=Tom Jones - She's a lady
TTITLE1=J.J. Cale - Cocaine
TTITLE2=Johnny Cash - Ring of fire
TTITLE3=Peter Frampton - Baby, I love your way
TTITLE4=Status Quo - Rockin' all over the world
TTITLE5=The Troggs - Wild thing
TTITLE6=Thin Lizzy - Whiskey in the jar
TTITLE7=The Spencer Davis Group - Keep on running
TTITLE8=Deep Purple - Perfect strangers
TTITLE9=Eric Burdon - Ride on
TTITLE10=Lynyrd Skynyrd - Free bird
TTITLE11=Iggy Pop - Real wild child (wild one)
TTITLE12=Free - Wishing well
TTITLE13=Rod Stewart - Angel
TTITLE14=Styx - Boat on the river
TTITLE15=Elton John - Goodbye yellow brick road
TTITLE16=Scorpions - Wind of change
EXTD=YEAR: 2010
EXTT0=
EXTT1=
EXTT2=
EXTT3=
EXTT4=
EXTT5=
EXTT6=
EXTT7=
EXTT8=
EXTT9=
EXTT10=
EXTT11=
EXTT12=
EXTT13=
EXTT14=
EXTT15=
EXTT16=
PLAYORDER=
